0
SECTION
2
HEADER
0
ENDSEC
0
SECTION
2
TABLES
0
ENDSEC
0
SECTION
2
BLOCKS
0
ENDSEC
0
SECTION
2
ENTITIES
0
ELLIPSE
10
100.0
20
200.0
30
0.0
40
50.0
41
30.0
50
45.0
0
ELLIPSE
10
150.0
20
250.0
30
0.0
40
60.0
41
40.0
50
30.0
0
ELLIPSE
10
200.0
20
300.0
30
0.0
40
70.0
41
50.0
50
15.0
0
LINE
10
50.0
20
50.0
30
0.0
11
150.0
21
150.0
31
0.0
0
LINE
10
150.0
20
150.0
30
0.0
11
250.0
21
250.0
31
0.0
0
LINE
10
250.0
20
250.0
30
0.0
11
350.0
21
350.0
31
0.0
0
CIRCLE
10
400.0
20
400.0
30
0.0
40
40.0
0
CIRCLE
10
500.0
20
500.0
30
0.0
40
30.0
0
ARC
10
600.0
20
600.0
30
0.0
40
20.0
50
0.0
51
90.0
0
ARC
10
650.0
20
650.0
30
0.0
40
15.0
50
45.0
51
135.0
0
POINT
10
700.0
20
700.0
30
0.0
0
POINT
10
750.0
20
750.0
30
0.0
0
LINE
10
800.0
20
800.0
30
0.0
11
850.0
21
850.0
31
0.0
0
TEXT
10
1000.0
20
1000.0
30
0.0
1
Hello, DXF World!
40
20.0
0
TEXT
10
1100.0
20
1100.0
30
0.0
1
Ellipse Example
40
30.0
0
SOLID
10
1200.0
20
1200.0
30
0.0
11
1300.0
21
1200.0
31
0.0
12
1300.0
22
1300.0
32
0.0
13
1200.0
23
1300.0
33
0.0
0
SOLID
10
1400.0
20
1400.0
30
0.0
11
1500.0
21
1400.0
31
0.0
12
1500.0
22
1500.0
32
0.0
13
1400.0
23
1500.0
33
0.0
0
ELLIPSE
10
1500.0
20
1600.0
30
0.0
40
50.0
41
35.0
50
60.0
0
LINE
10
1600.0
20
1600.0
30
0.0
11
1700.0
21
1700.0
31
0.0
0
LINE
10
1700.0
20
1700.0
30
0.0
11
1800.0
21
1800.0
31
0.0
0
CIRCLE
10
1800.0
20
1800.0
30
0.0
40
25.0
0
LINE
10
1900.0
20
1900.0
30
0.0
11
2000.0
21
2000.0
31
0.0
0
TEXT
10
2100.0
20
2100.0
30
0.0
1
DXF Entity Drawing
40
40.0
0
SOLID
10
2200.0
20
2200.0
30
0.0
11
2300.0
21
2200.0
31
0.0
12
2300.0
22
2300.0
32
0.0
13
2200.0
23
2300.0
33
0.0
0
ARC
10
2300.0
20
2300.0
30
0.0
40
35.0
50
0.0
51
45.0
0
CIRCLE
10
2400.0
20
2400.0
30
0.0
40
30.0
0
POINT
10
2500.0
20
2500.0
30
0.0
0
LINE
10
2600.0
20
2600.0
30
0.0
11
2700.0
21
2700.0
31
0.0
0
LINE
10
2700.0
20
2700.0
30
0.0
11
2800.0
21
2800.0
31
0.0
0
ELLIPSE
10
2800.0
20
2800.0
30
0.0
40
60.0
41
50.0
50
30.0
0
SOLID
10
2900.0
20
2900.0
30
0.0
11
3000.0
21
2900.0
31
0.0
12
3000.0
22
3000.0
32
0.0
13
2900.0
23
3000.0
33
0.0
0
LINE
10
3000.0
20
3000.0
30
0.0
11
3100.0
21
3100.0
31
0.0
0
LINE
10
3100.0
20
3100.0
30
0.0
11
3200.0
21
3200.0
31
0.0
0
CIRCLE
10
3200.0
20
3200.0
30
0.0
40
20.0
0
TEXT
10
3300.0
20
3300.0
30
0.0
1
Creating DXF Files
40
25.0
0
TEXT
10
3400.0
20
3400.0
30
0.0
1
This is a test.
40
15.0
0
ARC
10
3500.0
20
3500.0
30
0.0
40
50.0
50
0.0
51
90.0
0
POINT
10
3600.0
20
3600.0
30
0.0
0
SOLID
10
3700.0
20
3700.0
30
0.0
11
3800.0
21
3700.0
31
0.0
12
3800.0
22
3800.0
32
0.0
13
3700.0
23
3800.0
33
0.0
0
LINE
10
3800.0
20
3800.0
30
0.0
11
3900.0
21
3900.0
31
0.0
0
LINE
10
3900.0
20
3900.0
30
0.0
11
4000.0
21
4000.0
31
0.0
0
TEXT
10
4100.0
20
4100.0
30
0.0
1
End of DXF Example
40
20.0
0
ENDSEC
0
SECTION
2
OBJECTS
0
ENDSEC
0
EOF
